<svg xmlns="http://www.w3.org/2000/svg" viewBox="0 0 1140 850" width="1140" height="850"
     role="img" aria-label="r0p0 블록디자인 간략도: 호스트 QDMA 에서 NoC 를 거쳐 sc_host, dispatcher, gpr_wrap, emulator_controller 로 갈리고, bank 컨트롤러가 NoC 를 통해 HBM 에 닿는다. ILA 슬롯 8개와 프로브 3개가 붙은 위치를 표시했다.">
  <defs>
    <marker id="ar" viewBox="0 0 10 10" refX="9" refY="5" markerWidth="7" markerHeight="7" orient="auto-start-reverse">
      <path d="M0,0 L10,5 L0,10 z" fill="#6b6b62"/>
    </marker>
    <marker id="arM" viewBox="0 0 10 10" refX="9" refY="5" markerWidth="7" markerHeight="7" orient="auto-start-reverse">
      <path d="M0,0 L10,5 L0,10 z" fill="#a8a89e"/>
    </marker>
    <marker id="arT" viewBox="0 0 10 10" refX="9" refY="5" markerWidth="7" markerHeight="7" orient="auto-start-reverse">
      <path d="M0,0 L10,5 L0,10 z" fill="#1a5f7f"/>
    </marker>
  </defs>

  <rect width="1140" height="850" fill="#fbfbf9"/>

  <text x="40" y="38" font-family="system-ui,-apple-system,'Noto Sans KR',sans-serif" font-size="19" font-weight="700" fill="#17170f">r0p0 블록디자인 — ILA 가 어디에 붙어 있는가</text>
  <text x="40" y="59" font-family="system-ui,-apple-system,'Noto Sans KR',sans-serif" font-size="12.5" fill="#6b6b62">emu_top_fpga_bd.tcl 기준 · 간략도 (gb_wrap · cmd_bus 내부 · reset 계통 생략) · 상세는 bd-reference.md</text>
  <line x1="40" y1="74" x2="1100" y2="74" stroke="#dcdcd4"/>

  <!-- ===================== host ===================== -->
  <rect x="60" y="98" width="250" height="46" rx="4" fill="#eeeeea" stroke="#c9c9c0"/>
  <text x="185" y="118" text-anchor="middle" font-family="system-ui,-apple-system,'Noto Sans KR',sans-serif" font-size="13" font-weight="700" fill="#17170f">versal_cips_0 · CPM QDMA</text>
  <text x="185" y="134" text-anchor="middle" font-family="system-ui,-apple-system,'Noto Sans KR',sans-serif" font-size="10" fill="#6b6b62">호스트 PCIe · BAR2 8 MB → AXI 0x202_0000_0000</text>
  <rect x="176" y="137" width="18" height="15" rx="2" fill="#fff" stroke="#8a8a80"/>
  <text x="185" y="148" text-anchor="middle" font-family="system-ui,sans-serif" font-size="9" font-weight="700" fill="#3d3d35">M</text>

  <path d="M 185 152 L 185 161 L 118 161 L 118 166" stroke="#6b6b62" stroke-width="1.6" fill="none" marker-end="url(#ar)"/>
  <path d="M 185 152 L 185 161 L 190 161 L 190 166" stroke="#6b6b62" stroke-width="1.6" fill="none" marker-end="url(#ar)"/>

  <!-- ===================== NoC (host side) ===================== -->
  <rect x="60" y="175" width="190" height="345" rx="5" fill="#ecebe4" stroke="#b5b5a8" stroke-width="1.4"/>
  <text x="155" y="205" text-anchor="middle" font-family="system-ui,-apple-system,'Noto Sans KR',sans-serif" font-size="14" font-weight="700" fill="#17170f">axi_noc_0</text>
  <text x="155" y="221" text-anchor="middle" font-family="system-ui,-apple-system,'Noto Sans KR',sans-serif" font-size="10" fill="#6b6b62">NoC · 주소 디코드</text>
  <text x="155" y="424" text-anchor="middle" font-family="ui-monospace,Menlo,monospace" font-size="9" fill="#6b6b62">M00·M01·M02 → 0x202_…</text>
  <text x="155" y="440" text-anchor="middle" font-family="ui-monospace,Menlo,monospace" font-size="9" fill="#6b6b62">M03 → 0x201_… 4 G</text>

  <g font-family="system-ui,sans-serif" font-size="8.5" font-weight="700" fill="#3d3d35">
    <rect x="100" y="166" width="36" height="16" rx="2" fill="#fff" stroke="#8a8a80"/><text x="118" y="178" text-anchor="middle">S00</text>
    <rect x="172" y="166" width="36" height="16" rx="2" fill="#fff" stroke="#8a8a80"/><text x="190" y="178" text-anchor="middle">S01</text>
    <rect x="232" y="192" width="36" height="16" rx="2" fill="#fff" stroke="#8a8a80"/><text x="250" y="204" text-anchor="middle">M00</text>
    <rect x="232" y="292" width="36" height="16" rx="2" fill="#fff" stroke="#8a8a80"/><text x="250" y="304" text-anchor="middle">M02</text>
    <rect x="232" y="363" width="36" height="16" rx="2" fill="#fff" stroke="#8a8a80"/><text x="250" y="375" text-anchor="middle">M01</text>
    <rect x="232" y="483" width="36" height="16" rx="2" fill="#fff" stroke="#8a8a80"/><text x="250" y="495" text-anchor="middle">M03</text>
  </g>

  <!-- ===================== sc_host ===================== -->
  <rect x="330" y="180" width="140" height="80" rx="4" fill="#eeeeea" stroke="#c9c9c0"/>
  <text x="400" y="214" text-anchor="middle" font-family="system-ui,-apple-system,'Noto Sans KR',sans-serif" font-size="12.5" font-weight="700" fill="#17170f">sc_host</text>
  <text x="400" y="230" text-anchor="middle" font-family="system-ui,-apple-system,'Noto Sans KR',sans-serif" font-size="9.5" fill="#6b6b62">smartconnect</text>
  <g font-family="system-ui,sans-serif" font-size="9" font-weight="700" fill="#3d3d35">
    <rect x="321" y="192" width="18" height="16" rx="2" fill="#fff" stroke="#8a8a80"/><text x="330" y="204" text-anchor="middle">S</text>
    <rect x="461" y="192" width="18" height="16" rx="2" fill="#fff" stroke="#8a8a80"/><text x="470" y="204" text-anchor="middle">M</text>
    <rect x="461" y="233" width="18" height="16" rx="2" fill="#fff" stroke="#8a8a80"/><text x="470" y="245" text-anchor="middle">M</text>
  </g>

  <!-- ===================== right column ===================== -->
  <rect x="600" y="150" width="230" height="42" rx="4" fill="#eeeeea" stroke="#c9c9c0"/>
  <text x="723" y="167" text-anchor="middle" font-family="system-ui,-apple-system,'Noto Sans KR',sans-serif" font-size="12.5" font-weight="700" fill="#17170f">viol_csr_0</text>
  <text x="723" y="182" text-anchor="middle" font-family="system-ui,-apple-system,'Noto Sans KR',sans-serif" font-size="9.5" fill="#6b6b62">위반 CSR · AXI-Lite 12/32 · +0x401000</text>

  <rect x="600" y="212" width="230" height="118" rx="4" fill="#eeeeea" stroke="#c9c9c0"/>
  <text x="715" y="234" text-anchor="middle" font-family="system-ui,-apple-system,'Noto Sans KR',sans-serif" font-size="12.5" font-weight="700" fill="#17170f">dispatcher_top_0</text>
  <text x="640" y="258" font-family="system-ui,-apple-system,'Noto Sans KR',sans-serif" font-size="9.5" fill="#6b6b62">s_lite → CFR · 12/32 · +0x400000</text>
  <text x="640" y="305" font-family="system-ui,-apple-system,'Noto Sans KR',sans-serif" font-size="9.5" fill="#6b6b62">s_axi → IMEM · 256 b · +0x600000</text>

  <rect x="600" y="350" width="230" height="42" rx="4" fill="#eeeeea" stroke="#c9c9c0"/>
  <text x="723" y="367" text-anchor="middle" font-family="system-ui,-apple-system,'Noto Sans KR',sans-serif" font-size="12.5" font-weight="700" fill="#17170f">gpr_wrap_0</text>
  <text x="723" y="382" text-anchor="middle" font-family="system-ui,-apple-system,'Noto Sans KR',sans-serif" font-size="9.5" fill="#6b6b62">GPR 4 MiB · 256 b · +0x000000</text>

  <rect x="600" y="470" width="230" height="42" rx="4" fill="#eeeeea" stroke="#c9c9c0"/>
  <text x="723" y="487" text-anchor="middle" font-family="system-ui,-apple-system,'Noto Sans KR',sans-serif" font-size="12.5" font-weight="700" fill="#17170f">emulator_controller_0</text>
  <text x="723" y="502" text-anchor="middle" font-family="system-ui,-apple-system,'Noto Sans KR',sans-serif" font-size="9.5" fill="#6b6b62">MC normal path · 256 b · 0x201_…</text>

  <g font-family="system-ui,sans-serif" font-size="9" font-weight="700" fill="#3d3d35">
    <rect x="591" y="163" width="18" height="16" rx="2" fill="#fff" stroke="#8a8a80"/><text x="600" y="175" text-anchor="middle">S</text>
    <rect x="591" y="245" width="18" height="16" rx="2" fill="#fff" stroke="#8a8a80"/><text x="600" y="257" text-anchor="middle">S</text>
    <rect x="591" y="292" width="18" height="16" rx="2" fill="#fff" stroke="#8a8a80"/><text x="600" y="304" text-anchor="middle">S</text>
    <rect x="591" y="363" width="18" height="16" rx="2" fill="#fff" stroke="#8a8a80"/><text x="600" y="375" text-anchor="middle">S</text>
    <rect x="591" y="483" width="18" height="16" rx="2" fill="#fff" stroke="#8a8a80"/><text x="600" y="495" text-anchor="middle">S</text>
  </g>

  <!-- ===================== nets : NoC -> leaves (모두 직선) ============= -->
  <g stroke="#6b6b62" stroke-width="1.6" fill="none">
    <line x1="268" y1="200" x2="319" y2="200" marker-end="url(#ar)"/>
    <line x1="268" y1="300" x2="589" y2="300" marker-end="url(#ar)"/>
    <line x1="268" y1="371" x2="589" y2="371" marker-end="url(#ar)"/>
    <line x1="268" y1="491" x2="589" y2="491" marker-end="url(#ar)"/>
    <path d="M 479 200 L 520 200 L 520 171 L 589 171" marker-end="url(#ar)"/>
    <path d="M 479 241 L 520 241 L 520 253 L 589 253" marker-end="url(#ar)"/>
  </g>

  <!-- ===================== ISR stream ===================== -->
  <path d="M 830 290 L 890 290 L 890 480 L 832 480" stroke="#1a5f7f" stroke-width="2" fill="none" marker-end="url(#arT)"/>
  <text x="898" y="380" font-family="system-ui,-apple-system,'Noto Sans KR',sans-serif" font-size="10" font-weight="700" fill="#1a5f7f">ISR 256 b</text>
  <text x="898" y="394" font-family="system-ui,-apple-system,'Noto Sans KR',sans-serif" font-size="9" fill="#1a5f7f">valid / ready</text>

  <!-- ===================== cmd_bus ===================== -->
  <g stroke="#1a5f7f" stroke-width="2" fill="none">
    <path d="M 715 512 L 715 575 L 990 575 L 990 735"/>
    <line x1="990" y1="625" x2="870" y2="625" marker-end="url(#arT)"/>
    <line x1="990" y1="680" x2="870" y2="680" marker-end="url(#arT)"/>
    <line x1="990" y1="735" x2="870" y2="735" marker-end="url(#arT)"/>
  </g>
  <text x="728" y="568" font-family="system-ui,-apple-system,'Noto Sans KR',sans-serif" font-size="10" font-weight="700" fill="#1a5f7f">cmd_bus 44 b — 16 bank 로 방송</text>

  <!-- ===================== bottom : HBM <- NoC <- banks ============ -->
  <rect x="180" y="640" width="150" height="70" rx="4" fill="#ecebe4" stroke="#b5b5a8"/>
  <text x="255" y="672" text-anchor="middle" font-family="system-ui,-apple-system,'Noto Sans KR',sans-serif" font-size="13" font-weight="700" fill="#17170f">HBM</text>
  <text x="255" y="688" text-anchor="middle" font-family="system-ui,-apple-system,'Noto Sans KR',sans-serif" font-size="9.5" fill="#6b6b62">8 stack · 16 GiB</text>

  <rect x="380" y="598" width="140" height="164" rx="5" fill="#ecebe4" stroke="#b5b5a8" stroke-width="1.4" stroke-dasharray="6 3"/>
  <text x="450" y="666" text-anchor="middle" font-family="system-ui,-apple-system,'Noto Sans KR',sans-serif" font-size="12" font-weight="700" fill="#17170f">axi_noc_0</text>
  <text x="450" y="682" text-anchor="middle" font-family="system-ui,-apple-system,'Noto Sans KR',sans-serif" font-size="9.5" fill="#6b6b62">같은 IP · HBM 측</text>
  <text x="450" y="697" text-anchor="middle" font-family="ui-monospace,Menlo,monospace" font-size="8.5" fill="#6b6b62">HBM00‥15_AXI</text>
  <g font-family="system-ui,sans-serif" font-size="9" font-weight="700" fill="#3d3d35">
    <rect x="511" y="617" width="18" height="16" rx="2" fill="#fff" stroke="#8a8a80"/><text x="520" y="629" text-anchor="middle">S</text>
    <rect x="511" y="672" width="18" height="16" rx="2" fill="#fff" stroke="#8a8a80"/><text x="520" y="684" text-anchor="middle">S</text>
    <rect x="511" y="727" width="18" height="16" rx="2" fill="#fff" stroke="#8a8a80"/><text x="520" y="739" text-anchor="middle">S</text>
  </g>

  <rect x="620" y="605" width="240" height="40" rx="4" fill="#eeeeea" stroke="#c9c9c0"/>
  <text x="740" y="623" text-anchor="middle" font-family="system-ui,-apple-system,'Noto Sans KR',sans-serif" font-size="12" font-weight="700" fill="#17170f">bank_00</text>
  <text x="740" y="637" text-anchor="middle" font-family="system-ui,-apple-system,'Noto Sans KR',sans-serif" font-size="9" fill="#6b6b62">m_axi 256 b → HBM00_AXI</text>

  <rect x="620" y="660" width="240" height="40" rx="4" fill="#eeeeea" stroke="#c9c9c0"/>
  <text x="740" y="678" text-anchor="middle" font-family="system-ui,-apple-system,'Noto Sans KR',sans-serif" font-size="12" font-weight="700" fill="#17170f">bank_01</text>
  <text x="740" y="692" text-anchor="middle" font-family="system-ui,-apple-system,'Noto Sans KR',sans-serif" font-size="9" fill="#6b6b62">m_axi 256 b → HBM01_AXI</text>

  <rect x="620" y="715" width="240" height="40" rx="4" fill="#f5f5f1" stroke="#c9c9c0" stroke-dasharray="5 3"/>
  <text x="740" y="733" text-anchor="middle" font-family="system-ui,-apple-system,'Noto Sans KR',sans-serif" font-size="12" font-weight="700" fill="#9a9a90">bank_02 ‥ bank_15</text>
  <text x="740" y="747" text-anchor="middle" font-family="system-ui,-apple-system,'Noto Sans KR',sans-serif" font-size="9" fill="#9a9a90">ILA 안 붙음</text>

  <g font-family="system-ui,sans-serif" font-size="9" font-weight="700" fill="#3d3d35">
    <rect x="611" y="617" width="18" height="16" rx="2" fill="#fff" stroke="#8a8a80"/><text x="620" y="629" text-anchor="middle">M</text>
    <rect x="611" y="672" width="18" height="16" rx="2" fill="#fff" stroke="#8a8a80"/><text x="620" y="684" text-anchor="middle">M</text>
    <rect x="611" y="727" width="18" height="16" rx="2" fill="#fff" stroke="#a8a89e"/><text x="620" y="739" text-anchor="middle" fill="#8a8a80">M</text>
  </g>

  <g stroke="#6b6b62" stroke-width="1.6" fill="none">
    <line x1="609" y1="625" x2="531" y2="625" marker-end="url(#ar)"/>
    <line x1="609" y1="680" x2="531" y2="680" marker-end="url(#ar)"/>
    <line x1="378" y1="675" x2="334" y2="675" marker-end="url(#ar)"/>
  </g>
  <line x1="609" y1="735" x2="531" y2="735" stroke="#a8a89e" stroke-width="1.6" fill="none" marker-end="url(#arM)"/>

  <!-- ===================== ILA badges ===================== -->
  <g font-family="system-ui,sans-serif" font-size="10.5" font-weight="700">
    <rect x="279" y="192" width="30" height="17" rx="8" fill="#efe7f7" stroke="#6b3fa0"/><text x="294" y="205" text-anchor="middle" fill="#55308a">0</text>
    <rect x="410" y="292" width="30" height="17" rx="8" fill="#efe7f7" stroke="#6b3fa0"/><text x="425" y="305" text-anchor="middle" fill="#55308a">6</text>
    <rect x="410" y="363" width="30" height="17" rx="8" fill="#efe7f7" stroke="#6b3fa0"/><text x="425" y="376" text-anchor="middle" fill="#55308a">1</text>
    <rect x="410" y="483" width="30" height="17" rx="8" fill="#efe7f7" stroke="#6b3fa0"/><text x="425" y="496" text-anchor="middle" fill="#55308a">7</text>
    <rect x="541" y="163" width="30" height="17" rx="8" fill="#efe7f7" stroke="#6b3fa0"/><text x="556" y="176" text-anchor="middle" fill="#55308a">5</text>
    <rect x="541" y="245" width="30" height="17" rx="8" fill="#efe7f7" stroke="#6b3fa0"/><text x="556" y="258" text-anchor="middle" fill="#55308a">4</text>
    <rect x="551" y="617" width="30" height="17" rx="8" fill="#efe7f7" stroke="#6b3fa0"/><text x="566" y="630" text-anchor="middle" fill="#55308a">2</text>
    <rect x="551" y="672" width="30" height="17" rx="8" fill="#efe7f7" stroke="#6b3fa0"/><text x="566" y="685" text-anchor="middle" fill="#55308a">3</text>
    <rect x="900" y="290" width="66" height="17" rx="8" fill="#efe7f7" stroke="#6b3fa0"/><text x="933" y="303" text-anchor="middle" fill="#55308a">P0·P1·P2</text>
  </g>

  <!-- AXI-Lite 갈래 주석 -->
  <text x="600" y="130" font-family="system-ui,-apple-system,'Noto Sans KR',sans-serif" font-size="10.5" fill="#55308a">
    <tspan font-weight="700">AXI-Lite 갈래</tspan> — 슬롯 0 이 합류 지점을, 슬롯 4·5 가 갈라진 뒤를 본다. 셋 다 12 bit 주소 / 32 bit 데이터.
  </text>

  <!-- ===================== legend ===================== -->
  <line x1="40" y1="790" x2="1100" y2="790" stroke="#dcdcd4"/>
  <g font-family="system-ui,-apple-system,'Noto Sans KR',sans-serif" font-size="10.5" fill="#3d3d35">
    <rect x="60" y="803" width="30" height="17" rx="8" fill="#efe7f7" stroke="#6b3fa0"/><text x="75" y="816" text-anchor="middle" font-weight="700" fill="#55308a">n</text>
    <text x="98" y="816">ILA 슬롯 n — 그 net 의 AW/W/B/AR/R 전부</text>
    <rect x="378" y="805" width="18" height="16" rx="2" fill="#fff" stroke="#8a8a80"/><text x="387" y="817" text-anchor="middle" font-size="9" font-weight="700">M</text>
    <rect x="402" y="805" width="18" height="16" rx="2" fill="#fff" stroke="#8a8a80"/><text x="411" y="817" text-anchor="middle" font-size="9" font-weight="700">S</text>
    <text x="428" y="816">AXI 마스터 / 슬레이브 포트</text>
    <line x1="620" y1="812" x2="650" y2="812" stroke="#6b6b62" stroke-width="1.6"/>
    <text x="658" y="816">AXI</text>
    <line x1="700" y1="812" x2="730" y2="812" stroke="#1a5f7f" stroke-width="2"/>
    <text x="738" y="816">PIM 내부 경로 (AXI 아님)</text>
    <line x1="908" y1="812" x2="938" y2="812" stroke="#a8a89e" stroke-width="1.6"/>
    <text x="946" y="816">ILA 가 안 붙은 경로</text>
  </g>
</svg>
